<svg xmlns="http://www.w3.org/2000/svg" viewBox="0 0 286 249.43"><defs><style>.a,.d{fill:#fff;}.a,.b,.d,.e{stroke:#3d4752;}.a,.b,.e{stroke-miterlimit:10;}.a,.b,.d{stroke-width:3px;}.b,.e{fill:none;}.c{fill:#3d4752;}.d{stroke-linejoin:round;}.e{stroke-width:2px;}</style></defs><title>featured</title><path class="a" d="M1.5,67.43h0V126c0,5.37,8.78,9.76,19.52,9.76s19.52-4.39,19.52-9.76V67.43c0-5.37-8.73-9.76-19.52-9.76S1.5,62.06,1.5,67.43Z"/><path class="b" d="M1.5,106.46h39m-39,9.76h39M1.5,86.95h39m-39-9.76h39"/><path class="b" d="M21,135.74v70.75a2.42,2.42,0,0,1-2.44,2.44h-8"/><path class="c" d="M1.5,208.93c4.26-1.58,9.54-4.28,12.82-7.13l-2.58,7.13,2.58,7.13C11,213.21,5.76,210.51,1.5,208.93Z"/><path class="c" d="M21.51,135.74H21l0.49,0v0Zm-0.49,0h0Z"/><path class="b" d="M21,57.67V32.35a2.45,2.45,0,0,1,2.44-2.44h70"/><path class="c" d="M102.5,29.91C98.24,31.49,93,34.18,89.68,37l2.58-7.13-2.58-7.13C93,25.63,98.24,28.33,102.5,29.91Z"/><polygon class="c" points="21.5 57.67 21.02 57.67 20.53 57.72 20.53 57.67 21.5 57.67"/><rect class="d" x="102.5" y="20.78" width="88.12" height="18.25"/><polygon class="d" points="118.21 39.03 124.56 49.96 184.38 49.96 190.62 39.03 118.21 39.03"/><line class="b" x1="108.84" y1="39.03" x2="108.84" y2="46.35"/><line class="b" x1="105.67" y1="46.35" x2="112.02" y2="46.35"/><path class="c" d="M174.92,44.1c-5.27,3.52-13.67,3.52-18.94,0C161.25,40.59,169.65,40.59,174.92,44.1Z"/><path class="c" d="M156,44.1c-5.17,3.52-13.56,3.52-18.83,0C142.42,40.59,150.81,40.59,156,44.1Z"/><line class="b" x1="155.98" y1="62.35" x2="155.98" y2="44.1"/><path class="a" d="M188.18,20.78a2.42,2.42,0,0,0,2.44-2.44v-6A2.42,2.42,0,0,0,188.18,10H120.65a2.45,2.45,0,0,0-2.44,2.44v6a2.45,2.45,0,0,0,2.44,2.44h67.53Z"/><line class="e" x1="121.43" y1="15.71" x2="193.74" y2="15.71"/><path class="c" d="M193.74,12.1c5.76,0,6.34,7.32,0,7.32V12.1Z"/><line class="b" x1="105.67" y1="13.56" x2="112.02" y2="13.56"/><line class="b" x1="108.84" y1="13.56" x2="108.84" y2="20.78"/><path class="c" d="M174.92,2.63c-5.27,3.51-13.67,3.51-18.94,0C161.25-.88,169.65-0.88,174.92,2.63Z"/><path class="c" d="M156,2.63c-5.17,3.51-13.56,3.51-18.83,0C142.42-.88,150.81-0.88,156,2.63Z"/><path class="a" d="M156,39V2.63"/><path class="e" d="M181.16,18.25l3.22-5.07m-9.47,5.07L178,13.17m-9.47,5.07,3.22-5.07m-9.47,5.07,3.12-5.07M156,18.25l3.22-5.07m-9.47,5.07,3.12-5.07m-9.47,5.07,3.22-5.07m-9.47,5.07,3.12-5.07m-9.47,5.07L134,13.17m-9.47,5.07,3.12-5.07"/><path class="a" d="M162.13,65.08V93c-0.13,1.63-2.32,2.54-4.75,2.73a3.18,3.18,0,0,1-.45,0,10.22,10.22,0,0,1-2.07-.09h-0.1c-2.16-.3-4-1.18-4.14-2.66V65.08c0.13-1.75,2.63-2.68,5.27-2.77,0.38,0,.77,0,1.15,0l0.51,0C159.88,62.59,162,63.5,162.13,65.08Z"/><path class="c" d="M122.51,105.88l-4.88-7.32h9.76Zm0,1v0Zm-4.88,7.32h9.76l-4.88-7.32Z"/><path class="c" d="M116.82,101.8v9.13c-1.32,0-2.29-2.06-2.29-4.57S115.5,101.8,116.82,101.8Z"/><path class="a" d="M89.33,106.37A14.64,14.64,0,1,0,74.69,121,14.62,14.62,0,0,0,89.33,106.37Z"/><line class="b" x1="60.05" y1="106.37" x2="89.33" y2="106.37"/><path class="b" d="M122.51,98.56V69.87a2.42,2.42,0,0,0-2.44-2.44H49.59"/><path class="c" d="M40.53,67.43c4.26-1.58,9.54-4.28,12.82-7.13l-2.58,7.13,2.58,7.13C50.08,71.71,44.79,69,40.53,67.43Z"/><path class="a" d="M141.54,155.21A19.52,19.52,0,1,1,122,135.69,19.51,19.51,0,0,1,141.54,155.21Z"/><polyline class="b" points="122.65 135.69 122.65 139.4 132.95 145.55 112.41 159.94 122.65 170.19 122.65 174.72"/><polyline class="b" points="122.65 114.17 122.65 125.05 122.65 135.69"/><polygon class="c" points="123.14 135.74 122.17 135.69 123.14 135.69 123.14 135.74"/><polyline class="b" points="122.51 106.37 105.92 106.37 89.33 106.37"/><polygon class="c" points="89.33 106.85 89.33 106.85 89.33 106.37 89.33 105.88 89.33 106.85"/><line class="b" x1="141.54" y1="155.21" x2="189.08" y2="155.21"/><path class="c" d="M198.14,155.21c-4.26,1.58-9.54,4.28-12.82,7.13l2.58-7.13-2.58-7.13C188.59,150.93,193.88,153.63,198.14,155.21Z"/><polygon class="c" points="141.54 155.7 141.54 155.7 141.54 155.21 141.54 154.72 141.54 155.7"/><line class="b" x1="102.5" y1="155.21" x2="55.17" y2="155.21"/><polygon class="c" points="102.5 155.21 102.55 155.7 102.5 155.7 102.5 154.72 102.55 154.72 102.5 155.21"/><path class="a" d="M274.74,77.19H216.19c-5.37,0-9.76,8.78-9.76,19.52s4.39,19.52,9.76,19.52h58.55c5.37,0,9.76-8.73,9.76-19.52S280.11,77.19,274.74,77.19Z"/><path class="b" d="M190.62,29.91h32.89a2.42,2.42,0,0,1,2.44,2.44V77.19"/><path class="b" d="M235.71,116.22v96.61a2.42,2.42,0,0,1-2.44,2.44H186.21"/><path class="c" d="M177.16,215.27c4.26-1.58,9.54-4.28,12.82-7.13l-2.58,7.13L190,222.4C186.7,219.55,181.41,216.85,177.16,215.27Z"/><path class="a" d="M146.91,216.25H136.76a19.5,19.5,0,1,1-23-15.23,17.86,17.86,0,0,1,3.9-.39h29.28v15.62Z"/><rect class="c" x="164.66" y="231.86" width="4.88" height="17.57"/><rect class="c" x="164.66" y="231.86" width="4.88" height="17.57"/><path class="a" d="M157.64,204.05v25.47c0.59,4.44,19.52,4.44,19.52,0V204.05C177.16,200.63,158.22,200.63,157.64,204.05Z"/><path class="b" d="M157.64,228h19.52m-19.52-22.09h19.52"/><line class="b" x1="122.51" y1="200.63" x2="122.51" y2="175.16"/><line class="b" x1="255.22" y1="77.19" x2="255.42" y2="57.67"/><path class="c" d="M255.22,77.19h0Z"/><polygon class="c" points="255.91 57.67 254.93 57.67 255.42 57.67 255.91 57.62 255.91 57.67"/><circle class="a" cx="255.42" cy="33.27" r="24.4"/><line class="b" x1="231.02" y1="33.27" x2="279.82" y2="33.27"/><path class="c" d="M160.54,68.08V90H152.2V68.08h8.33m3-3H149.2V93h14.33V65.08h0Z"/></svg>